# xmcd
#
# Track frame offsets: 
#        150
#        15168
#        29122
#        45611
#        60162
#        77570
#        95137
#        112398
#        130782
#        149720
#        169779
#        183978
#        195963
#
# Disc length: 2837 seconds
#
# Revision: 0
# Processed by: cddbd v1.5.1PL0 Copyright (c) Steve Scherf et al.
# Submitted via: ExactAudioCopy v0.90b4
#
DISCID=ae0b130d
DTITLE=Chaka Khan - Classikhan
DYEAR=2004
DGENRE=Jazz
TTITLE0=Chaka Khan - Hey Big Spender
TTITLE1=Chaka Khan - Hazels Hips
TTITLE2=Chaka Khan - The Best is yet to come
TTITLE3=Chaka Khan - Crazy
TTITLE4=Chaka Khan - Im in the mood for love
TTITLE5=Chaka Khan - Is that all there is
TTITLE6=Chaka Khan - Stormy Weather
TTITLE7=Chaka Khan - Round Midnight
TTITLE8=Chaka Khan - Teach me tonight
TTITLE9=Chaka Khan - To sir with love
TTITLE10=Chaka Khan - Diamonds are forever
TTITLE11=Chaka Khan - Goldfinger
TTITLE12=Chaka Khan - I believe
EXTD=
EXTT0=
EXTT1=
EXTT2=
EXTT3=
EXTT4=
EXTT5=
EXTT6=
EXTT7=
EXTT8=
EXTT9=
EXTT10=
EXTT11=
EXTT12=
PLAYORDER=
